<?xml version="1.0" standalone="no"?>
<!DOCTYPE svg PUBLIC "-//W3C//DTD SVG 20010904//EN"
 "http://www.w3.org/TR/2001/REC-SVG-20010904/DTD/svg10.dtd">
<svg version="1.0" xmlns="http://www.w3.org/2000/svg"
 width="73.000000pt" height="60.000000pt" viewBox="0 0 73.000000 60.000000"
 preserveAspectRatio="xMidYMid meet">

<g transform="translate(0.000000,60.000000) scale(0.100000,-0.100000)"
fill="#000000" stroke="none">
<path d="M282 514 c-26 -18 -29 -56 -6 -78 32 -33 87 -9 87 39 0 27 -24 55
-48 55 -6 0 -21 -7 -33 -16z"/>
<path d="M682 478 c-6 -6 -33 -24 -59 -39 -44 -26 -46 -29 -20 -29 27 0 108
62 96 74 -3 3 -11 0 -17 -6z"/>
<path d="M170 361 c-30 -10 -68 -25 -85 -35 -16 -9 -21 -14 -10 -11 33 11 144
29 149 24 2 -2 -15 -76 -40 -164 -24 -88 -44 -161 -44 -163 0 -2 23 -2 52 0
l52 3 41 155 c23 85 45 167 49 183 l6 27 -57 -1 c-32 0 -83 -8 -113 -18z"/>
</g>
</svg>
