<?xml version="1.0" standalone="no"?>
<!DOCTYPE svg PUBLIC "-//W3C//DTD SVG 20010904//EN"
 "http://www.w3.org/TR/2001/REC-SVG-20010904/DTD/svg10.dtd">
<svg version="1.0" xmlns="http://www.w3.org/2000/svg"
 width="73.000000pt" height="60.000000pt" viewBox="0 0 73.000000 60.000000"
 preserveAspectRatio="xMidYMid meet">
<metadata>
Created by potrace 1.10, written by Peter Selinger 2001-2011
</metadata>
<g transform="translate(0.000000,60.000000) scale(0.100000,-0.100000)"
fill="#000000" stroke="none">
<path d="M504 592 c-46 -3 -53 -6 -63 -30 -8 -23 -151 -544 -151 -554 0 -2 69
-1 154 2 154 5 155 5 185 34 64 61 100 209 67 271 -25 47 -64 65 -136 65 -55
0 -61 2 -55 18 12 28 57 194 53 196 -2 0 -26 0 -54 -2z m21 -21 c3 -6 -4 -48
-16 -95 -25 -101 -19 -118 40 -115 119 7 167 -69 125 -197 -22 -64 -55 -107
-97 -128 -45 -21 -257 -24 -257 -3 0 11 15 69 86 332 40 150 57 201 68 207 16
11 44 10 51 -1z"/>
<path d="M463 288 c-5 -7 -20 -49 -32 -93 l-23 -79 23 -19 c14 -12 36 -17 58
-16 67 5 102 36 120 106 23 91 8 113 -78 113 -35 0 -62 -5 -68 -12z m135 -36
c5 -33 -27 -121 -48 -132 -28 -15 -123 -13 -117 3 3 6 13 45 23 85 l18 73 60
-3 c55 -3 61 -5 64 -26z"/>
<path d="M263 504 c-15 -24 -15 -29 -2 -53 28 -50 109 -34 109 23 0 55 -76 76
-107 30z m75 -37 c-2 -16 -10 -22 -28 -22 -28 0 -39 27 -20 50 18 21 52 1 48
-28z"/>
<path d="M684 485 c-17 -14 -55 -38 -85 -55 l-54 -30 40 0 c30 0 48 7 70 28
75 68 96 110 29 57z"/>
<path d="M201 375 c-61 -14 -191 -74 -191 -87 0 -5 12 -2 28 6 57 29 182 52
182 32 -1 -6 -20 -81 -44 -166 -24 -85 -42 -156 -42 -157 1 -1 15 2 32 6 17 6
21 10 11 10 -13 1 -17 7 -13 19 3 9 14 51 26 92 12 41 29 98 37 127 8 29 13
63 9 77 -6 25 -4 26 33 26 39 0 57 -10 44 -24 -4 -3 -8 -14 -9 -24 -4 -35 -74
-275 -84 -287 -8 -9 -6 -14 5 -19 9 -3 18 0 20 7 17 43 101 368 97 372 -9 9
-85 4 -141 -10z"/>
</g>
</svg>
